<svg width="20" height="17" viewBox="0 0 20 17" fill="none" xmlns="http://www.w3.org/2000/svg">
<path fill-rule="evenodd" clip-rule="evenodd" d="M16.735 1.90002C17.655 1.71802 19.22 1.08702 20 0.624023C19.699 1.56802 18.514 2.76002 17.68 3.26002C18.497 3.16202 19.275 2.94602 20 2.62402C19.458 3.43402 18.773 4.14502 17.983 4.71502C17.986 4.78102 17.989 4.90802 17.992 5.04402C17.992 5.05752 17.994 5.07077 17.996 5.08402C17.998 5.09727 18 5.11052 18 5.12402C18 5.13302 17.9988 5.14177 17.9975 5.15052C17.9963 5.15927 17.995 5.16802 17.995 5.17702C17.998 5.35802 18 5.53802 18 5.62402C18 10.962 13.777 16.625 6.347 16.625C4.065 16.625 1.788 15.77 0 14.624H0.964C3.794 14.624 4.753 14.222 6.135 13.138C4.368 13.106 2.514 12.204 2 10.599C2.246 10.645 3.166 10.764 3.426 10.764C3.795 10.764 4.551 10.742 4.926 10.521C3.078 10.15 1 8.81702 1 6.85902V6.80802C1.563 7.27202 2.178 7.42502 2.759 7.42502C3.119 7.42502 3.465 7.36702 3.779 7.28602C2.074 6.43302 0.979 5.05702 0.979 3.65602C0.979 2.91402 1.066 2.12402 1.265 1.62402C3.095 3.86802 5.647 5.62402 9 5.62402C8.99238 5.53539 8.99531 5.39258 8.99784 5.26963C8.99798 5.2628 8.99812 5.25604 8.99825 5.24935C8.9992 5.2025 9 5.15928 9 5.12402C9 2.63902 11.015 0.624023 13.5 0.624023C14.733 0.624023 15.847 1.12102 16.66 1.92302C16.6724 1.91969 16.6839 1.9159 16.6954 1.91209C16.7081 1.9079 16.7209 1.90369 16.735 1.90002Z" fill="#2F80ED"/>
</svg>
